{"asset":{"version":"2.0","generator":"Intelligence Globe","copyright":"Intelligence Globe CC-BY-4.0"},"scene":0,"scenes":[{"nodes":[0]}],"nodes":[{"mesh":0,"name":"airliner"}],"meshes":[{"primitives":[{"attributes":{"POSITION":0,"NORMAL":1},"indices":2}]}],"accessors":[{"bufferView":0,"componentType":5126,"count":144,"type":"VEC3","max":[7.0,3.4000000000000004,8.3],"min":[-7.0,0.0,-8.0]},{"bufferView":1,"componentType":5126,"count":144,"type":"VEC3"},{"bufferView":2,"componentType":5123,"count":144,"type":"SCALAR"}],"bufferViews":[{"buffer":0,"byteOffset":0,"byteLength":1728,"target":34962},{"buffer":0,"byteOffset":1728,"byteLength":1728,"target":34962},{"buffer":0,"byteOffset":3456,"byteLength":288,"target":34963}],"buffers":[{"uri":"data:application/octet-stream;base64,","byteLength":3744}]}